# xmcd
#
# Track frame offsets:
#	150
#	38757
#	50112
#	86248
#	109471
#	131397
#
# Disc length: 2055 seconds
#
# Revision: 0
# Processed by: cddbd v1.5.2PL0 Copyright (c) Steve Scherf et al.
# Submitted via: EasyCDDAExtractor 11.1.0.1
#
DISCID=52080506
DTITLE=Peter Green - The End of the Game
DYEAR=1970
DGENRE=Blues
TTITLE0=Bottoms Up
TTITLE1=Timeless Tale
TTITLE2=Descending Scale
TTITLE3=Burnt Foot
TTITLE4=Hidden Depth
TTITLE5=End Of The Game
EXTD=
EXTT0=
EXTT1=
EXTT2=
EXTT3=
EXTT4=
EXTT5=
PLAYORDER=
